<?xml version="1.0" standalone="no"?>
<!DOCTYPE svg PUBLIC "-//W3C//DTD SVG 20010904//EN"
 "http://www.w3.org/TR/2001/REC-SVG-20010904/DTD/svg10.dtd">
<svg version="1.0" xmlns="http://www.w3.org/2000/svg"
 width="546.000000pt" height="546.000000pt" viewBox="0 0 546.000000 546.000000"
 preserveAspectRatio="xMidYMid meet">
<metadata>
Created by potrace 1.11, written by Peter Selinger 2001-2013
</metadata>
<g transform="translate(0.000000,546.000000) scale(0.100000,-0.100000)"
fill="#000000" stroke="none">
<path d="M2539 5356 c-2 -2 -33 -6 -69 -10 -125 -11 -195 -21 -295 -43 -38 -8
-80 -17 -93 -19 -36 -7 -254 -74 -287 -88 -16 -7 -70 -30 -120 -50 -556 -231
-1039 -684 -1314 -1233 -82 -164 -174 -412 -195 -523 -2 -14 -11 -54 -19 -90
-8 -36 -20 -101 -27 -145 -6 -44 -13 -93 -16 -110 -11 -61 -13 -413 -3 -510 8
-85 22 -181 44 -296 38 -200 147 -493 264 -704 43 -79 183 -295 205 -318 6 -7
39 -46 72 -87 210 -258 501 -491 817 -655 185 -96 482 -205 630 -231 18 -3 50
-9 72 -14 22 -5 63 -12 90 -16 28 -3 59 -8 70 -10 130 -25 579 -25 710 0 11 2
43 7 70 10 67 9 210 42 320 72 502 141 990 468 1326 889 158 197 299 444 392
685 25 64 83 253 91 294 2 12 11 50 19 86 14 58 19 86 33 180 13 91 19 198 19
355 0 237 -9 322 -61 572 -2 12 -20 76 -38 141 -199 689 -695 1276 -1351 1597
-265 130 -562 221 -815 251 -30 3 -71 8 -90 11 -42 6 -446 14 -451 9z m429
-410 c9 -2 42 -7 72 -11 30 -3 82 -12 115 -20 l60 -13 -85 -1 c-47 -1 -161 -3
-255 -4 l-170 -2 -6 -35 c-13 -70 -20 -106 -34 -166 -8 -34 -16 -73 -19 -85
-2 -13 -28 -132 -56 -264 -29 -132 -54 -253 -57 -270 -2 -16 -8 -46 -13 -65
-5 -19 -17 -71 -26 -115 -9 -44 -17 -87 -19 -95 -50 -231 -66 -309 -69 -325
-2 -11 -20 -94 -39 -185 -20 -91 -50 -232 -67 -315 -18 -82 -34 -158 -37 -168
-5 -18 17 -18 569 -14 315 3 584 7 598 8 22 4 24 1 25 -36 l0 -40 -45 0 -45 0
0 -295 0 -295 -65 0 -65 0 0 -140 c0 -117 -3 -140 -15 -143 -13 -2 -15 15 -15
115 l0 118 -25 0 c-25 0 -25 0 -26 100 -1 55 -2 102 -3 105 -1 5 -79 6 -117 1
-7 -1 -10 -33 -9 -96 2 -71 -1 -98 -12 -106 -7 -7 -17 -9 -21 -5 -3 4 -7 82
-7 174 l0 166 -58 1 c-32 1 -61 -3 -65 -9 -4 -6 -7 -121 -8 -256 -2 -279 -1
-273 -12 -267 -4 3 -7 154 -7 336 0 182 -2 332 -5 332 -30 7 -120 3 -121 -6
-1 -5 -3 -161 -4 -345 -1 -184 -3 -341 -4 -348 -1 -10 -24 -12 -92 -10 l-92 3
-1 152 c0 148 -2 157 -31 154 -6 0 -10 24 -10 62 1 34 0 67 -2 73 -2 6 -34 10
-83 9 -44 -1 -81 1 -81 4 -1 3 -2 62 -3 131 -1 103 -4 125 -16 126 -8 1 -20 2
-25 2 -7 1 -10 136 -10 389 0 372 -1 386 -19 389 -10 1 -22 7 -25 11 -3 5 -32
9 -63 8 -101 0 -93 56 -93 -658 l0 -622 -25 0 c-18 0 -25 -5 -25 -20 0 -11 -4
-26 -9 -34 -19 -30 -22 33 -22 452 1 235 -2 428 -6 428 -5 1 -36 2 -70 3 l-63
1 0 80 c1 44 -4 83 -9 87 -22 15 -32 -14 -31 -87 0 -41 -3 -76 -7 -76 -4 -1
-12 -3 -18 -4 -5 -1 -14 -3 -18 -4 -4 0 -7 -64 -7 -142 0 -86 -3 -143 -10
-148 -5 -5 -31 -7 -57 -6 -27 1 -49 -3 -51 -9 -2 -6 -3 -156 -2 -334 0 -211
-3 -322 -10 -323 -5 -1 -32 -2 -60 -3 l-50 -1 0 -44 c0 -25 -5 -46 -12 -48 -7
-3 -10 15 -7 55 4 72 -19 117 -65 127 -80 17 -134 -31 -127 -115 2 -24 1 -50
-1 -57 -14 -35 -18 11 -18 171 0 112 -3 176 -10 177 -54 7 -178 3 -183 -6 -4
-5 -7 -86 -7 -180 l0 -170 -81 -3 -80 -3 1 106 c1 113 -4 133 -27 119 -10 -7
-14 -34 -13 -114 l0 -105 -83 0 -84 0 -27 65 c-64 149 -131 390 -146 525 -3
28 -10 82 -14 120 -9 78 -7 363 3 440 73 527 281 954 641 1310 369 366 841
585 1365 634 87 8 407 6 438 -3z m617 -417 c73 -3 170 -24 197 -43 66 -47 73
-166 16 -272 -20 -37 -80 -91 -117 -106 -86 -34 -128 -38 -424 -39 -164 0
-300 1 -303 3 -2 2 3 31 11 64 8 32 26 115 40 184 14 69 29 139 32 155 4 17 7
35 7 40 1 6 17 12 36 15 34 5 383 4 505 -1z m904 -444 c252 -333 407 -733 439
-1125 30 -378 -26 -731 -169 -1068 -19 -43 -19 -43 -66 -40 l-48 3 0 355 0
355 -90 1 c-50 0 -95 -2 -100 -5 -6 -3 -10 -49 -10 -106 l-1 -100 -104 0 c-58
-1 -112 1 -120 3 -13 3 -15 26 -15 143 0 137 -3 161 -21 160 -5 0 -26 5 -47
11 -30 9 -46 9 -70 -1 -18 -6 -36 -13 -42 -14 -19 -4 -20 -16 -20 -196 0 -100
-2 -181 -5 -182 -24 -5 -60 -5 -67 0 -5 3 -8 53 -8 111 0 99 -1 105 -20 105
-29 -1 -32 7 -30 85 1 39 -1 70 -4 71 -18 3 -178 5 -187 2 -6 -2 -10 -33 -9
-78 1 -41 -2 -76 -7 -76 -4 -1 -12 -3 -18 -4 -5 -1 -13 -3 -18 -4 -4 0 -7
-141 -7 -312 0 -170 -2 -315 -6 -320 -3 -6 -17 -9 -30 -7 l-24 3 0 433 c0 301
-3 435 -11 440 -9 6 -11 56 -5 93 1 4 16 10 34 13 49 9 174 72 237 118 133
100 239 243 291 396 30 87 33 109 33 212 1 110 -1 118 -32 182 -35 72 -90 128
-156 158 l-38 18 23 14 c106 65 136 87 178 135 56 63 105 149 128 225 l15 53
80 -85 c44 -47 110 -125 147 -175z m-976 -376 c187 -30 238 -161 142 -364 -28
-58 -82 -113 -142 -143 -36 -18 -55 -24 -128 -38 -43 -9 -616 -10 -621 -2 -2
4 1 28 7 55 6 26 12 57 15 68 2 11 8 40 13 65 6 25 24 113 41 195 17 83 33
155 35 162 5 15 548 16 638 2z m-8 -944 c1 -14 -2 -22 -5 -19 -3 3 -5 16 -5
29 -1 14 2 22 5 19 3 -3 5 -16 5 -29z m-2160 -865 c-1 -22 -4 -42 -7 -45 -4
-4 -3 73 1 83 5 11 7 -5 6 -38z m51 -11 c1 -22 -1 -38 -4 -35 -3 3 -6 24 -7
46 -1 22 1 38 4 35 3 -3 6 -24 7 -46z"/>
<path d="M1577 3254 c-3 -4 -41 -8 -84 -9 -43 -2 -86 -4 -95 -4 -9 -1 -32 -16
-50 -34 -18 -19 -59 -48 -90 -66 -32 -18 -58 -35 -58 -37 0 -6 44 0 148 22 76
16 150 48 238 104 42 26 45 30 23 30 -14 0 -28 -3 -32 -6z"/>
</g>
</svg>
